PathFileType	4	(X/Y/Z)	6_coords_data.trc
DataRate	CameraRate	NumFrames	NumMarkers	Units	OrigDataRate	OrigDataStartFrame	OrigNumFrames
30.0	30.0	5	21	m	30.0	10	66
Frame#	Time	THUMB_TIP	THUMB_IP	THUMB_MCP	THUMB_CMC	INDEX_TIP	INDEX_DIP	INDEX_PIP	INDEX_MCP	MIDDLE_TIP	MIDDLE_DIP	MIDDLE_PIP	MIDDLE_MCP	RING_TIP	RING_DIP	RING_PIP	RING_MCP	PINKY_TIP	PINKY_DIP	PINKY_PIP	PINKY_MCP	WRIST
X1	Y1	Z1	X2	Y2	Z2	X3	Y3	Z3	X4	Y4	Z4	X5	Y5	Z5	X6	Y6	Z6	X7	Y7	Z7	X8	Y8	Z8	X9	Y9	Z9	X10	Y10	Z10	X11	Y11	Z11	X12	Y12	Z12	X13	Y13	Z13	X14	Y14	Z14	X15	Y15	Z15	X16	Y16	Z16	X17	Y17	Z17	X18	Y18	Z18	X19	Y19	Z19	X20	Y20	Z20	X21	Y21	Z21
9	0.3	0.04075130081176758	-0.023166400909423828	1.014739990234375	0.03911130142211914	-0.04630720138549805	1.023739990234375	0.023799999237060547	-0.06102009963989258	1.04722998046875	0.005797560214996338	-0.035842700958251955	1.0605799560546876	0.009870050430297851	-0.05807229995727539	1.0309599609375	0.024601600646972657	-0.05791699981689453	1.0207899780273437	0.025612499237060545	-0.06298880004882812	0.9990999755859375	-0.014443099975585938	-0.06548030090332031	1.0051799926757812	0.022474899291992187	-0.042127799987792966	1.030239990234375	0.02304050064086914	-0.040036598205566404	1.0261700439453125	0.026643899917602538	-0.039892799377441404	0.9980360107421875	-0.01782539939880371	-0.042572799682617186	0.9960910034179687	0.02228470039367676	-0.027158700942993164	1.0271500244140626	0.017926300048828125	-0.0236432991027832	1.033469970703125	0.02853569984436035	-0.020489999771118164	1.0086500244140626	-0.013393799781799316	-0.018746700286865235	0.9985659790039062	0.005772630214691162	-0.0076183400154113765	1.0390899658203125	0.0196648006439209	-0.008175470352172852	1.034239990234375	0.02634589958190918	-0.003986979961395264	1.0158800048828125	-0.0040797901153564456	0.0016891800165176392	1.0078699951171874	-0.027818599700927735	-0.015024499893188476	1.07702001953125
10	0.3333333333333333	0.040711898803710934	-0.023213300704956055	1.0144500122070312	0.039150798797607425	-0.046468399047851563	1.0235499877929688	0.023806699752807615	-0.06102379989624023	1.0471600341796874	0.005795430183410644	-0.03584709930419922	1.0604599609375	0.009889129638671876	-0.058139999389648436	1.031050048828125	0.02459239959716797	-0.057932998657226564	1.02077001953125	0.025598899841308594	-0.06305780029296874	0.99893701171875	-0.014539600372314453	-0.06551309967041016	1.004989990234375	0.022563499450683595	-0.04217309951782226	1.0303299560546875	0.022952699661254884	-0.040129199981689456	1.0260999755859375	0.0266151008605957	-0.04005709838867187	0.9980339965820313	-0.01789940071105957	-0.042621799468994144	0.9959019775390625	0.022498600006103514	-0.02743199920654297	1.0262099609375	0.017893400192260742	-0.02382080078125	1.0330999755859376	0.028519100189208984	-0.02056730079650879	1.0085	-0.013418899536132813	-0.01876799964904785	0.99839599609375	0.005804830074310303	-0.007707240104675293	1.0389599609375	0.019589099884033203	-0.008319499969482422	1.033489990234375	0.026354000091552733	-0.0040148401260375974	1.0155700073242186	-0.00424753999710083	0.001671049952507019	1.0078699951171874	-0.027741500854492188	-0.015019100189208984	1.0768699951171874
11	0.36666666666666664	0.0406952018737793	-0.023150299072265627	1.0140599975585938	0.039101600646972656	-0.04646080017089844	1.0233400268554687	0.023970800399780272	-0.0608916015625	1.0470699462890625	0.0056993899345397945	-0.03582889938354492	1.060239990234375	0.009817279815673829	-0.057981998443603515	1.03097998046875	0.02448200035095215	-0.05783280181884766	1.020489990234375	0.025506900787353515	-0.06292789840698242	0.9987639770507812	-0.014547699928283692	-0.06540830230712891	1.0046900024414063	0.02229680061340332	-0.04212070083618164	1.030050048828125	0.022940799713134764	-0.04012139892578125	1.0256500244140625	0.026487800598144533	-0.03995439910888672	0.9975280151367187	-0.01796470069885254	-0.04247119903564453	0.9956400146484375	0.02216860008239746	-0.027484699249267577	1.02575	0.018008800506591798	-0.023720399856567383	1.03306005859375	0.028444900512695312	-0.020528799057006837	1.0082999877929688	-0.013507599830627442	-0.018599700927734376	0.998301025390625	0.005790150165557862	-0.007680490016937256	1.0387900390625	0.019529899597167968	-0.008252120018005371	1.0331300048828125	0.026425600051879883	-0.003965939998626709	1.0156699829101563	-0.004187610149383545	0.001773990035057067	1.0075999755859375	-0.02780030059814453	-0.01497089958190918	1.0766700439453125
12	0.4	0.04080899810791016	-0.022999000549316407	1.013989990234375	0.03924620056152344	-0.04627099990844727	1.0231799926757812	0.023986400604248045	-0.060879798889160154	1.0469599609375	0.005892879962921142	-0.035731800079345705	1.06018994140625	0.010217399597167968	-0.057762500762939456	1.0306099853515625	0.024673599243164063	-0.057677501678466796	1.0205	0.025779300689697266	-0.06272309875488281	0.9986790161132812	-0.014423000335693359	-0.06531400299072265	1.0046599731445311	0.0225408992767334	-0.04191239929199219	1.030010009765625	0.023232099533081054	-0.039932899475097657	1.0256300048828124	0.026697200775146486	-0.039727901458740236	0.9974810180664062	-0.017805200576782226	-0.042371799468994144	0.9955770263671875	0.022412500381469726	-0.027183799743652343	1.0260400390625	0.018094699859619142	-0.02350760078430176	1.0331099853515624	0.02859989929199219	-0.020337600708007813	1.0082899780273438	-0.013387399673461914	-0.01850629997253418	0.9982230224609375	0.005875549793243408	-0.007626790046691895	1.0386800537109375	0.019679300308227538	-0.008132579803466797	1.03322998046875	0.02654549980163574	-0.003806269884109497	1.01547998046875	-0.004022480010986328	0.001914319992065429	1.007530029296875	-0.02771500015258789	-0.014940699577331544	1.0766099853515625
13	0.43333333333333335	0.040904399871826175	-0.022809700012207033	1.0139400024414063	0.0393484992980957	-0.04603129959106445	1.0230700073242187	0.024131099700927736	-0.060777999877929687	1.046760009765625	0.00595826005935669	-0.03569250106811524	1.0600899658203125	0.00996500015258789	-0.057731201171875	1.0305799560546876	0.024753599166870116	-0.05750379943847656	1.0203800048828124	0.025833200454711915	-0.06253189849853516	0.9984849853515625	-0.014305399894714356	-0.06515360260009766	1.004530029296875	0.02247610092163086	-0.041755001068115236	1.030030029296875	0.023097200393676756	-0.03967319869995117	1.0258699951171875	0.026767200469970703	-0.039600101470947266	0.997572021484375	-0.017738199234008788	-0.04223429870605469	0.9955009765625	0.022268899917602537	-0.027086700439453125	1.0269300537109376	0.017937799453735352	-0.023399200439453125	1.0328399658203125	0.028688499450683594	-0.02014859962463379	1.008239990234375	-0.013276599884033203	-0.018379899978637697	0.9980130004882812	0.005956500053405762	-0.007425899982452393	1.0386800537109375	0.019741800308227538	-0.00792411994934082	1.0332900390625	0.026496200561523436	-0.0036199400424957273	1.0154000244140624	-0.004043290138244629	0.002052229881286621	1.0075	-0.02744499969482422	-0.014901599884033202	1.07652001953125
